# xmcd
#
# Track frame offsets: 
#        183
#        16333
#        28058
#        45135
#        66703
#        83750
#        99600
#        115388
#        131078
#        143970
#        159953
#        173888
#        196030
#        212845
#
# Disc length: 3055 seconds
#
# Revision: 2
# Processed by: cddbd v1.5.1PL0 Copyright (c) Steve Scherf et al.
# Submitted via: ExactAudioCopy v0.95a5
#
DISCID=bf0bed0e
DTITLE=Alexander Curly - Het Beste Van
DYEAR=1989
DGENRE=Folklore
TTITLE0=I'll never drink again
TTITLE1=Dear Mrs.Meyer
TTITLE2=Guus
TTITLE3=Opoe
TTITLE4=Freek
TTITLE5=Aggesuus
TTITLE6=De paling
TTITLE7=Ome Joop
TTITLE8=D'r zit een deuk
TTITLE9=Zilverdael
TTITLE10=Dwergenlied
TTITLE11=Geef de zee aan de zeeman
TTITLE12=Ich bin Suzanne
TTITLE13=Hollanders
EXTD=
EXTT0=
EXTT1=
EXTT2=
EXTT3=
EXTT4=
EXTT5=
EXTT6=
EXTT7=
EXTT8=
EXTT9=
EXTT10=
EXTT11=
EXTT12=
EXTT13=
PLAYORDER=
